# xmcd
#
# Track frame offsets: 
#        183
#        11833
#        24730
#        41983
#        61590
#        75200
#        86393
#        98570
#        118638
#        130428
#        148783
#        162700
#        176005
#        187075
#
# Disc length: 2672 seconds
#
# Revision: 7
# Processed by: cddbd v1.5.2PL0 Copyright (c) Steve Scherf et al.
# Submitted via: ExactAudioCopyFreeDBPlugin 1.0
#
DISCID=bb0a6e0e
DTITLE=Various Artist - Country Gala 2
DYEAR=1990
DGENRE=Country
TTITLE0=Charlie Rich - The Most Beautiful Girl
TTITLE1=Lynn Anderson - Rose Garden
TTITLE2=Emmylou Harris - Together Again
TTITLE3=Marty Robbins - El Paso
TTITLE4=Jimmy Dean - Big Bad John
TTITLE5=Frankie Laine - Answer Me =mütterlein=
TTITLE6=Freddy Fender - Wasted Days And Wasted Nights
TTITLE7=Willie Nelson and Carlos Santana - They All Went To Mexico
TTITLE8=Linda Ronstadt - Love Me Tender
TTITLE9=Don Williams - I Believe In You
TTITLE10=Ricky Skaggs - If That's The Way You Feel
TTITLE11=Tammy Wynette - D.i.v.o.r.c.e.
TTITLE12=Roger Miller - King Of The Road
TTITLE13=Johnny Cash - Chicken In Black
EXTD=
EXTT0=
EXTT1=
EXTT2=
EXTT3=
EXTT4=
EXTT5=
EXTT6=
EXTT7=
EXTT8=
EXTT9=
EXTT10=
EXTT11=
EXTT12=
EXTT13=
PLAYORDER=
